<svg xmlns="http://www.w3.org/2000/svg" viewBox="0 0 900 300" font-family="-apple-system, BlinkMacSystemFont, 'Segoe UI', Helvetica, Arial, sans-serif">
  <defs>
    <marker id="ad" viewBox="0 0 10 10" refX="8" refY="5" markerWidth="7" markerHeight="7" orient="auto-start-reverse">
      <path d="M0 0 L10 5 L0 10 z" fill="#8b949e"/>
    </marker>
  </defs>

  <!-- self-contained panel so all text has guaranteed contrast regardless of page theme -->
  <rect x="6" y="6" width="888" height="288" rx="16" fill="#0d1117" stroke="#30363d" stroke-width="1"/>

  <text x="450" y="46" text-anchor="middle" font-size="21" font-weight="700" fill="#e6edf3">Your real Bluetooth code, tested with no hardware</text>

  <!-- Card A: the app -->
  <rect x="44" y="84" width="208" height="126" rx="14" fill="#161b22" stroke="#30363d" stroke-width="1.5"/>
  <g transform="translate(136,98)">
    <rect x="0" y="0" width="24" height="40" rx="4" fill="none" stroke="#8b949e" stroke-width="1.8"/>
    <line x1="8" y1="5" x2="16" y2="5" stroke="#8b949e" stroke-width="1.8" stroke-linecap="round"/>
    <circle cx="12" cy="33" r="1.6" fill="#8b949e"/>
  </g>
  <text x="148" y="174" text-anchor="middle" font-size="15" font-weight="700" fill="#e6edf3">Your OBD2 app</text>
  <text x="148" y="193" text-anchor="middle" font-size="12" fill="#8b949e">real CoreBluetooth code</text>

  <!-- Card B: elmulator (emphasized) -->
  <rect x="346" y="84" width="208" height="126" rx="14" fill="#161b22" stroke="#2f81f7" stroke-width="2"/>
  <g transform="translate(432,98)">
    <rect x="0" y="0" width="36" height="36" rx="10" fill="#2f81f7"/>
    <path d="M11 11 L18 17.5 L11 24" fill="none" stroke="#ffffff" stroke-width="2.6" stroke-linecap="round" stroke-linejoin="round"/>
    <rect x="21" y="20" width="8" height="3.4" rx="1" fill="#ffffff"/>
  </g>
  <text x="450" y="174" text-anchor="middle" font-size="15" font-weight="700" fill="#e6edf3">elmulator</text>
  <text x="450" y="193" text-anchor="middle" font-size="12" fill="#8b949e">scripted ELM327 · mock BLE</text>

  <!-- Card C: green CI -->
  <rect x="648" y="84" width="208" height="126" rx="14" fill="#161b22" stroke="#30363d" stroke-width="1.5"/>
  <circle cx="752" cy="120" r="18" fill="#3fb950"/>
  <path d="M743 121 L749 127 L761 113" fill="none" stroke="#ffffff" stroke-width="3.4" stroke-linecap="round" stroke-linejoin="round"/>
  <text x="752" y="174" text-anchor="middle" font-size="15" font-weight="700" fill="#3fb950">CI passes</text>
  <text x="752" y="193" text-anchor="middle" font-size="12" fill="#8b949e">no radio · any runner</text>

  <!-- Arrow A -> B -->
  <line x1="266" y1="147" x2="330" y2="147" stroke="#8b949e" stroke-width="2" marker-end="url(#ad)"/>
  <text x="298" y="136" text-anchor="middle" font-size="11" fill="#8b949e">commands</text>
  <text x="298" y="163" text-anchor="middle" font-size="11" fill="#8b949e">replies</text>
  <!-- Arrow B -> C -->
  <line x1="568" y1="147" x2="632" y2="147" stroke="#8b949e" stroke-width="2" marker-end="url(#ad)"/>
  <text x="600" y="136" text-anchor="middle" font-size="11" fill="#8b949e">swift test</text>

  <!-- Footer: no hardware -->
  <line x1="60" y1="238" x2="840" y2="238" stroke="#30363d" stroke-width="1"/>
  <!-- car -->
  <g transform="translate(286,248)">
    <path d="M2 15 L5 9 Q6.5 6.5 10 6.5 L18 6.5 Q21.5 6.5 23 9 L26 15 L26 18 Q26 19 25 19 L3 19 Q2 19 2 18 Z" fill="none" stroke="#8b949e" stroke-width="1.7" stroke-linejoin="round"/>
    <circle cx="8" cy="19" r="2.6" fill="#8b949e"/>
    <circle cx="20" cy="19" r="2.6" fill="#8b949e"/>
    <line x1="0" y1="23" x2="28" y2="3" stroke="#f85149" stroke-width="2.6" stroke-linecap="round"/>
  </g>
  <text x="300" y="288" text-anchor="middle" font-size="12" font-weight="500" fill="#8b949e">car</text>
  <!-- adapter -->
  <g transform="translate(437,248)">
    <rect x="5" y="9" width="16" height="13" rx="2" fill="none" stroke="#8b949e" stroke-width="1.7"/>
    <line x1="10" y1="9" x2="10" y2="3" stroke="#8b949e" stroke-width="1.7" stroke-linecap="round"/>
    <line x1="16" y1="9" x2="16" y2="3" stroke="#8b949e" stroke-width="1.7" stroke-linecap="round"/>
    <line x1="13" y1="22" x2="13" y2="26" stroke="#8b949e" stroke-width="1.7" stroke-linecap="round"/>
    <line x1="0" y1="24" x2="26" y2="2" stroke="#f85149" stroke-width="2.6" stroke-linecap="round"/>
  </g>
  <text x="450" y="288" text-anchor="middle" font-size="12" font-weight="500" fill="#8b949e">adapter</text>
  <!-- radio -->
  <g transform="translate(585,248)">
    <circle cx="6" cy="20" r="2" fill="#8b949e"/>
    <path d="M13 20 A7 7 0 0 0 6 13" fill="none" stroke="#8b949e" stroke-width="1.8" stroke-linecap="round"/>
    <path d="M18 20 A12 12 0 0 0 6 8" fill="none" stroke="#8b949e" stroke-width="1.8" stroke-linecap="round"/>
    <line x1="0" y1="24" x2="30" y2="2" stroke="#f85149" stroke-width="2.6" stroke-linecap="round"/>
  </g>
  <text x="600" y="288" text-anchor="middle" font-size="12" font-weight="500" fill="#8b949e">radio</text>
</svg>
